<svg width="136" height="24" viewBox="0 0 136 24" fill="none" xmlns="http://www.w3.org/2000/svg">
<path d="M5.672 0.48V14.04H12.752V18H0.752V0.48H5.672ZM23.4239 9.84H24.1439C24.1439 9.296 24.0399 8.92 23.8319 8.712C23.6239 8.504 23.2479 8.4 22.7039 8.4C21.0239 8.4 19.3839 8.76 17.7839 9.48L17.1839 6.36C18.9439 5.64 20.8639 5.28 22.9439 5.28C25.0239 5.28 26.5039 5.672 27.3839 6.456C28.2639 7.224 28.7039 8.512 28.7039 10.32V14.64C28.7039 15.792 28.8239 16.912 29.0639 18H24.7439C24.6479 17.456 24.5679 16.896 24.5039 16.32H24.4559C24.0239 16.896 23.4639 17.36 22.7759 17.712C22.0879 18.064 21.3839 18.24 20.6639 18.24C19.4319 18.24 18.4399 17.904 17.6879 17.232C16.9519 16.544 16.5839 15.6 16.5839 14.4C16.5839 13.024 17.1679 11.92 18.3359 11.088C19.5199 10.256 21.2159 9.84 23.4239 9.84ZM20.6639 13.92C20.6639 14.64 21.0639 15 21.8639 15C22.5519 15 23.1039 14.808 23.5199 14.424C23.9359 14.04 24.1439 13.512 24.1439 12.84V12.48H23.4239C22.5119 12.48 21.8239 12.616 21.3599 12.888C20.8959 13.144 20.6639 13.488 20.6639 13.92ZM46.251 14.4H46.299L47.475 5.52H51.867L48.987 18H43.707L42.291 9.36H42.243L40.827 18H35.547L32.667 5.52H37.155L38.331 14.4H38.379L39.795 5.52H44.835L46.251 14.4ZM62.0321 13.92H62.0801L64.3361 5.52H69.1361L62.6561 23.28H57.8561L60.0161 18L55.2161 5.52H60.2561L62.0321 13.92ZM76.2141 10.56H80.2701C80.2701 9.04 79.5901 8.28 78.2301 8.28C76.9981 8.28 76.3261 9.04 76.2141 10.56ZM76.2621 13.2C76.5341 14.48 77.4461 15.12 78.9981 15.12C80.1981 15.12 81.3421 14.84 82.4301 14.28L83.3901 17.28C81.9181 17.92 80.3181 18.24 78.5901 18.24C76.5261 18.24 74.8701 17.656 73.6221 16.488C72.3741 15.32 71.7501 13.744 71.7501 11.76C71.7501 9.76 72.3181 8.184 73.4541 7.032C74.6061 5.864 76.1581 5.28 78.1101 5.28C80.1101 5.28 81.6701 5.848 82.7901 6.984C83.9101 8.104 84.4701 9.696 84.4701 11.76C84.4701 12.192 84.4301 12.672 84.3501 13.2H76.2621ZM98.8498 5.28V8.88C97.0578 8.88 95.7058 9.216 94.7938 9.888C93.8818 10.56 93.4258 11.504 93.4258 12.72V18H88.7698V5.52H93.0658L93.0898 7.92H93.1378C94.5138 6.16 96.4178 5.28 98.8498 5.28ZM115.931 16.368C114.699 17.616 112.923 18.24 110.603 18.24C108.283 18.24 106.499 17.616 105.251 16.368C104.019 15.104 103.403 13.248 103.403 10.8V0.48H108.251V11.16C108.251 12.296 108.451 13.12 108.851 13.632C109.251 14.144 109.851 14.4 110.651 14.4C111.451 14.4 112.051 14.144 112.451 13.632C112.851 13.12 113.051 12.296 113.051 11.16V0.48H117.803V10.8C117.803 13.248 117.179 15.104 115.931 16.368ZM127.017 5.52L127.113 7.2H127.161C128.201 5.92 129.433 5.28 130.857 5.28C132.361 5.28 133.553 5.848 134.433 6.984C135.329 8.104 135.777 9.696 135.777 11.76C135.777 13.776 135.313 15.36 134.385 16.512C133.473 17.664 132.297 18.24 130.857 18.24C129.449 18.24 128.305 17.68 127.425 16.56H127.377V23.28H122.817V5.52H127.017ZM131.457 11.76C131.457 10.768 131.273 10.024 130.905 9.528C130.553 9.016 130.057 8.76 129.417 8.76C128.793 8.76 128.297 9.016 127.929 9.528C127.561 10.024 127.377 10.728 127.377 11.64V11.88C127.377 12.808 127.561 13.52 127.929 14.016C128.297 14.512 128.793 14.76 129.417 14.76C130.009 14.76 130.497 14.504 130.881 13.992C131.265 13.464 131.457 12.72 131.457 11.76Z" fill="#FCFCFC"/>
</svg>
